<?xml version="1.0" encoding="utf-8"?>
<!-- Generator: Adobe Illustrator 24.1.0, SVG Export Plug-In . SVG Version: 6.00 Build 0)  -->
<svg version="1.1"
	 id="Layer_1" xmlns:cc="http://creativecommons.org/ns#" xmlns:dc="http://purl.org/dc/elements/1.1/" xmlns:inkscape="http://www.inkscape.org/namespaces/inkscape" xmlns:rdf="http://www.w3.org/1999/02/22-rdf-syntax-ns#" xmlns:sodipodi="http://sodipodi.sourceforge.net/DTD/sodipodi-0.dtd" xmlns:svg="http://www.w3.org/2000/svg"
	 xmlns="http://www.w3.org/2000/svg" xmlns:xlink="http://www.w3.org/1999/xlink" x="0px" y="0px" viewBox="0 0 15 15"
	 style="enable-background:new 0 0 15 15;" xml:space="preserve">
<g transform="translate(0,-952.36216)">
	<g>
		<g>
			<path d="M7.5,952.5c-1.7,0-3.1,1.4-3.1,3.1s1.4,3.1,3.1,3.1s3.1-1.4,3.1-3.1S9.2,952.5,7.5,952.5z M7.5,953
				c1.4,0,2.6,1.2,2.6,2.6s-1.2,2.6-2.6,2.6s-2.6-1.2-2.6-2.6S6.1,953,7.5,953z M7.5,960.1c-1.8,0-3.6,0.7-4.9,1.9s-2,2.9-2,4.7
				c0,0.1,0,0.2,0,0.3c0,0.1,0.1,0.2,0.2,0.2h13.3c0.1,0,0.2-0.1,0.2-0.2c0-0.1,0-0.2,0-0.3c0-1.7-0.7-3.4-2-4.7
				S9.3,960.1,7.5,960.1z M7.5,960.6c1.7,0,3.4,0.7,4.5,1.8s1.9,2.7,1.9,4.3c0,0,0,0,0,0.1H1.1c0,0,0,0,0-0.1c0-1.6,0.7-3.2,1.9-4.3
				S5.9,960.6,7.5,960.6z"/>
			<path d="M14.2,967.4H0.9c-0.2,0-0.4-0.2-0.4-0.4c0-0.1,0-0.2,0-0.3c0-1.8,0.8-3.5,2.1-4.8c1.3-1.2,3.1-2,5-2s3.7,0.7,5,2
				c1.3,1.3,2.1,3,2.1,4.8c0,0.1,0,0.2,0,0.3C14.6,967.2,14.4,967.4,14.2,967.4z M7.5,960.2c-1.8,0-3.5,0.7-4.8,1.9
				c-1.3,1.2-2,2.9-2,4.6c0,0.1,0,0.2,0,0.3c0,0.1,0,0.1,0.1,0.1h13.3c0.1,0,0.1,0,0.1-0.1c0-0.1,0-0.2,0-0.3c0-1.7-0.7-3.4-2-4.6
				C11.1,960.9,9.3,960.2,7.5,960.2z M14,966.9H1v-0.2c0-1.6,0.7-3.3,1.9-4.4c1.2-1.2,2.9-1.8,4.6-1.8c1.7,0,3.4,0.7,4.6,1.8
				c1.2,1.1,1.9,2.8,1.9,4.4l0,0.2L14,966.9z M1.3,966.6h12.5c0-1.5-0.7-3.1-1.8-4.1c-1.2-1.1-2.8-1.8-4.4-1.8
				c-1.7,0-3.3,0.6-4.4,1.8C2,963.5,1.3,965.1,1.3,966.6z M7.5,958.8c-1.8,0-3.2-1.4-3.2-3.2s1.4-3.2,3.2-3.2c1.8,0,3.2,1.4,3.2,3.2
				S9.3,958.8,7.5,958.8z M7.5,952.6c-1.6,0-2.9,1.3-2.9,2.9s1.3,2.9,2.9,2.9s2.9-1.3,2.9-2.9S9.2,952.6,7.5,952.6z M7.5,958.3
				c-1.5,0-2.8-1.2-2.8-2.8c0-1.5,1.2-2.8,2.8-2.8c1.5,0,2.8,1.2,2.8,2.8C10.3,957.1,9.1,958.3,7.5,958.3z M7.5,953.1
				c-1.4,0-2.5,1.1-2.5,2.5c0,1.4,1.1,2.5,2.5,2.5c1.4,0,2.5-1.1,2.5-2.5C10,954.2,8.9,953.1,7.5,953.1z"/>
		</g>
	</g>
</g>
</svg>
