<?xml version="1.0" encoding="utf-8"?>
<!-- Generator: Adobe Illustrator 24.1.0, SVG Export Plug-In . SVG Version: 6.00 Build 0)  -->
<svg version="1.1" id="Layer_1" xmlns="http://www.w3.org/2000/svg" xmlns:xlink="http://www.w3.org/1999/xlink" x="0px" y="0px"
	 viewBox="0 0 15 15" style="enable-background:new 0 0 15 15;" xml:space="preserve">
<g>
	<g>
		<g>
			<path d="M7.4,0.2c-1.6,0-2.9,1.3-2.9,2.9v1.2H2.1C2,4.3,1.9,4.4,1.9,4.5v9c0,0.7,0.6,1.3,1.3,1.3h8.4c0.7,0,1.3-0.6,1.3-1.3v-9
				c0-0.1-0.1-0.2-0.2-0.2h-2.4V3.1C10.4,1.5,9,0.2,7.4,0.2z M4.9,3.1c0-1.4,1.1-2.5,2.5-2.5S10,1.7,10,3.1v1.2H4.9V3.1z M12.6,4.7
				v8.8c0,0.5-0.4,0.9-0.9,0.9H3.2c-0.5,0-0.9-0.4-0.9-0.9V4.7h2.2v2.7h0.4V4.7H10v2.7h0.4V4.7H12.6z"/>
			<path d="M11.6,15H3.2c-0.8,0-1.5-0.7-1.5-1.5v-9c0-0.2,0.2-0.4,0.4-0.4h2.2v-1C4.3,1.4,5.7,0,7.4,0c0.8,0,1.6,0.3,2.2,0.9
				c0.6,0.6,0.9,1.4,0.9,2.2v1h2.2c0.2,0,0.4,0.2,0.4,0.4v9C13.1,14.3,12.5,15,11.6,15z M2.5,4.9v8.6c0,0.4,0.3,0.7,0.7,0.7h8.4
				c0.4,0,0.7-0.3,0.7-0.7V4.9h-1.8v2.7H9.8V4.9H5.1v2.7H4.3V4.9H2.5z M5.1,4.1h4.7v-1c0-1.3-1.1-2.3-2.3-2.3S5.1,1.8,5.1,3.1V4.1z"
				/>
		</g>
	</g>
</g>
</svg>
