<svg id="Layer_1" data-name="Layer 1" xmlns="http://www.w3.org/2000/svg" viewBox="0 0 400 40"><defs><style>.cls-1{fill:#4f4f4f;}</style></defs><path d="M47.64844,3.81934v6.47705h-.46289c0-3.33106-1.34229-6.01465-3.0083-6.01465H41.169V35.74219h1.85156v.46289H35.61572v-.46289H37.4668V4.28174H34.4585c-1.666,0-3.0083,2.68359-3.0083,6.01465h-.4629v-6.477Z"/><path d="M67.36328,3.81934v.4624H65.51221V35.74219h1.85107v.46289H59.9585v-.46289h1.85156v-15.499H55.33057v15.499h1.85107v.46289H49.77686v-.46289h1.85156V4.28174H49.77686v-.4624h7.40478v.4624H55.33057v15.499h6.47949V4.28174H59.9585v-.4624Z"/><path d="M83.56055,10.29639h-.46289c0-3.33106-1.3418-6.01465-3.0083-6.01465H75.69287v15.499h2.77686c1.01806,0,1.85107-1.66553,1.85107-3.70117h.46289v7.86475H80.3208c0-2.03516-.833-3.70118-1.85107-3.70118H75.69287v15.499h4.39649c1.6665,0,3.0083-2.6836,3.0083-6.01465h.46289v6.47754H70.13916v-.46289h1.85156V4.28174H70.13916v-.4624H83.56055Z"/><path d="M99.98877,22.3252v13.417h1.85107v.46289H94.43506v-.46289h1.85156V4.28174H94.43506v-.4624h7.40478c4.99854,0,8.33057,3.33105,8.33057,7.40234v3.70117c0,4.07129-3.332,7.40235-8.33057,7.40235Zm0-18.04346V21.86328h1.85107c2.54541,0,4.62842-3.10058,4.62842-6.94043V11.22168c0-3.83984-2.083-6.93994-4.62842-6.93994Z"/><path d="M118.13037,20.47461V35.74219h1.85108v.46289h-7.40479v-.46289h1.85156V4.28174h-1.85156v-.4624h7.40479c4.99853,0,8.33056,3.33105,8.33056,7.40234v1.85059a7.41337,7.41337,0,0,1-6.10889,7.17089A7.41439,7.41439,0,0,1,128.312,27.415v6.24512c0,.8789.41651,1.57324.92578,1.57324.50879,0,.9253-.69434.9253-1.57324h.46289a3.00806,3.00806,0,0,1-6.01612,0V27.415c0-3.84082-2.083-6.94043-4.62841-6.94043Zm0-16.19287V20.01221h1.85108c2.54541,0,4.62841-3.1001,4.62841-6.93994V11.22168c0-3.83984-2.083-6.93994-4.62841-6.93994Z"/><path d="M145.75879,10.29639h-.46289c0-3.33106-1.3418-6.01465-3.00781-6.01465H137.8916v15.499H140.668c1.01855,0,1.85156-1.66553,1.85156-3.70117h.46289v7.86475h-.46289c0-2.03516-.833-3.70118-1.85156-3.70118H137.8916v15.499h4.39649c1.666,0,3.00781-2.6836,3.00781-6.01465h.46289v6.47754H132.3374v-.46289H134.189V4.28174H132.3374v-.4624h13.42139Z"/><path d="M154.042,3.81934l5.92383,24.61328,5.09082-24.61328h5.55371v.4624h-1.85156V35.74219h1.85156v.46289h-7.40527v-.46289h1.85156V6.08643l-6.248,30.11865h-.74023L151.126,7.42822v28.314h1.85156v.46289h-4.39649v-.46289c1.48047,0,2.082-.60157,2.082-1.3877V5.66992c0-.78662-.60157-1.38818-2.082-1.38818v-.4624Z"/><path d="M180.791,3.81934v.4624h-1.85059V35.74219H180.791v.46289h-7.4043v-.46289h1.85058V4.28174h-1.85058v-.4624Z"/><path d="M198.00684,29.26562c0,4.07129-2.5,7.40235-5.55372,7.40235a7.28013,7.28013,0,0,1-7.40527-7.40235V4.28174h-1.85058v-.4624h7.40429v.4624H188.75V29.26562c0,3.83985,1.38867,6.93946,3.70312,6.93946,2.82325,0,5.09083-3.09961,5.09083-6.93946V4.28174h-1.85157v-.4624h4.39649v.4624c-1.48047,0-2.082.60156-2.082,1.38818Z"/><path d="M207.54,3.81934l5.92383,24.61328,5.09082-24.61328h5.55371v.4624h-1.85156V35.74219h1.85156v.46289h-7.40528v-.46289h1.85157V6.08643l-6.24805,30.11865h-.74023L204.624,7.42822v28.314h1.85157v.46289H202.0791v-.46289c1.48047,0,2.082-.60157,2.082-1.3877V5.66992c0-.78662-.60156-1.38818-2.082-1.38818v-.4624Z"/><path d="M248.544,29.26562v6.93946h-.4629c0-1.11035-.55566-1.666-1.2041-1.666a5.26333,5.26333,0,0,1-4.34961,2.12891,7.18921,7.18921,0,0,1-6.94238-7.40235V10.75928a7.18921,7.18921,0,0,1,6.94238-7.40235A5.14436,5.14436,0,0,1,246.877,5.48486c.64844,0,1.2041-.55517,1.2041-1.66552h.4629v6.93994h-.4629c0-3.979-2.36035-6.93994-5.09082-6.93994-2.31445,0-3.70312,3.09961-3.70312,6.93994V29.26562c0,3.83985,1.38867,6.93946,3.70312,6.93946,2.73047,0,5.09082-2.96094,5.09082-6.93946Z"/><path d="M252.291,10.75928a7.40479,7.40479,0,0,1,14.80957,0V29.26562a7.40479,7.40479,0,0,1-14.80957,0Zm11.10742,0c0-3.84033-1.38867-6.93994-3.70215-6.93994-2.31445,0-3.70313,3.09961-3.70313,6.93994V29.26562c0,3.83985,1.38868,6.93946,3.70313,6.93946,2.31348,0,3.70215-3.09961,3.70215-6.93946Z"/><path d="M270.75684,36.20508v-.46289h1.85058V4.28174h-1.85058v-.4624h7.40429v.4624h-1.85058V35.74219H280.707c1.666,0,3.00781-2.6836,3.00781-6.01465h.46289v6.47754Z"/><path d="M286.35254,36.20508v-.46289h1.85058V4.28174h-1.85058v-.4624h7.4043v.4624h-1.85059V35.74219h4.39648c1.666,0,3.00782-2.6836,3.00782-6.01465h.46289v6.47754Z"/><path d="M315.36914,10.29639h-.46289c0-3.33106-1.3418-6.01465-3.00781-6.01465H307.502v15.499h2.77637c1.01856,0,1.85156-1.66553,1.85156-3.70117h.46289v7.86475h-.46289c0-2.03516-.833-3.70118-1.85156-3.70118H307.502v15.499h4.39649c1.666,0,3.00781-2.6836,3.00781-6.01465h.46289v6.47754h-13.4209v-.46289h1.85059V4.28174h-1.85059v-.4624h13.4209Z"/><path d="M332.26172,29.26562v6.93946h-.46289c0-1.11035-.55567-1.666-1.2041-1.666a5.26334,5.26334,0,0,1-4.34961,2.12891,7.18921,7.18921,0,0,1-6.94239-7.40235V10.75928a7.18921,7.18921,0,0,1,6.94239-7.40235,5.14437,5.14437,0,0,1,4.34961,2.12793c.64843,0,1.2041-.55517,1.2041-1.66552h.46289v6.93994h-.46289c0-3.979-2.36035-6.93994-5.09082-6.93994-2.31446,0-3.70313,3.09961-3.70313,6.93994V29.26562c0,3.83985,1.38867,6.93946,3.70313,6.93946,2.73047,0,5.09082-2.96094,5.09082-6.93946Z"/><path d="M351.14258,3.81934v6.47705h-.46289c0-3.33106-1.3418-6.01465-3.00781-6.01465h-3.00879V35.74219h1.85156v.46289h-7.40527v-.46289h1.85156V4.28174h-3.00782c-1.667,0-3.00878,2.68359-3.00878,6.01465h-.46289v-6.477Z"/><path d="M360.67578,3.81934v.4624H358.8252V35.74219h1.85058v.46289h-7.4043v-.46289h1.85059V4.28174h-1.85059v-.4624Z"/><path d="M364.332,10.75928a7.40479,7.40479,0,0,1,14.80957,0V29.26562a7.40479,7.40479,0,0,1-14.80957,0Zm11.10742,0c0-3.84033-1.38867-6.93994-3.70215-6.93994-2.31445,0-3.70312,3.09961-3.70312,6.93994V29.26562c0,3.83985,1.38867,6.93946,3.70312,6.93946,2.31348,0,3.70215-3.09961,3.70215-6.93946Z"/><path d="M387.51855,3.81934l8.60743,23.04V4.28174h-1.85059v-.4624h4.39649v.4624c-1.48145,0-2.083.60156-2.083,1.38818V36.20508h-.74024L385.11133,7.38184V35.74219h1.85156v.46289h-4.39648v-.46289c1.48047,0,2.082-.60157,2.082-1.3877V5.66992c0-.78662-.60156-1.38818-2.082-1.38818v-.4624Z"/><path class="cls-1" d="M24.8098,33.82394V27.10849c-.71373,3.598-2.36451,5.34588-4.707,6.11924h-.03521l-.32973.59621Z"/><polygon class="cls-1" points="18.507 6.897 3.614 33.824 8.475 33.824 23.707 6.283 20.177 6.283 18.845 6.283 18.505 6.897 18.507 6.897"/><path class="cls-1" d="M6.73763,6.28269H4.15138v5.63023c.81283-2.75056,2.2028-4.28209,4.24137-5.01622h.00181l.33957-.614Z"/><path class="cls-1" d="M14.45912,21.55218V21.861h4.26624v2.35243a5.36377,5.36377,0,0,1-1.03581,3.3673,3.40054,3.40054,0,0,1-2.86233,1.3511c-3.54526,0-5.53066-2.94484-5.53066-8.89242a12.208,12.208,0,0,1,1.43732-6.26287,4.48614,4.48614,0,0,1,4.09334-2.76318c3.06924,0,6.05412,1.26674,6.05412,5.65937h.03633V10.98935h-.03633c0,.74822-.62136.92927-1.32771.92927a5.11077,5.11077,0,0,1-1.54755-.3504,7.73789,7.73789,0,0,0-3.17886-.57887,8.345,8.345,0,0,0-6.65145,3.427,9.47764,9.47764,0,0,0-1.72984,5.623A9.67176,9.67176,0,0,0,7.15228,23.791a8.10363,8.10363,0,0,0,1.90041,2.83646,8.4339,8.4339,0,0,0,5.77453,2.34011,10.05638,10.05638,0,0,0,3.60562-.83259,5.67349,5.67349,0,0,1,1.71752-.39782c.609,0,.92557.30176,1.20577.89294h.037l.00978-5.65575V21.55218Z"/><g id="Rectangle_4" data-name="Rectangle 4"><path class="cls-1" d="M26.46848,4.39565V35.58317H2.24276V4.39565H26.46848m.6-.6H1.64276V36.18317H27.06848V3.79565Z"/></g></svg>