<?xml version="1.0" encoding="utf-8"?>
<!-- Generator: Adobe Illustrator 24.1.0, SVG Export Plug-In . SVG Version: 6.00 Build 0)  -->
<svg version="1.1" id="Layer_1" xmlns="http://www.w3.org/2000/svg" xmlns:xlink="http://www.w3.org/1999/xlink" x="0px" y="0px"
	 viewBox="0 0 15 15" style="enable-background:new 0 0 15 15;" xml:space="preserve">
<g>
	<g>
		<path d="M5.8,11.2c-1.5,0-2.9-0.6-4-1.6c-2.2-2.2-2.2-5.7,0-7.9C2.9,0.6,4.3,0,5.8,0s2.9,0.6,4,1.6c2.2,2.2,2.2,5.7,0,7.9
			C8.8,10.6,7.4,11.2,5.8,11.2z M5.8,0.7c-1.3,0-2.5,0.5-3.4,1.4S1,4.3,1,5.6s0.5,2.5,1.4,3.4s2.2,1.4,3.4,1.4
			c1.3,0,2.5-0.5,3.4-1.4c0.9-0.9,1.4-2.2,1.4-3.4c0-1.3-0.5-2.5-1.4-3.4C8.4,1.2,7.2,0.7,5.8,0.7z"/>
	</g>
	<g>
		<rect x="11.6" y="8.3" transform="matrix(0.7071 -0.7071 0.7071 0.7071 -5.0402 11.9789)" width="0.8" height="7.5"/>
	</g>
</g>
</svg>
