<svg xmlns="http://www.w3.org/2000/svg" viewBox="0 0 318.41 36.55"><defs><style>.cls-1{font-size:35.85px;font-family:Voga-Medium, Voga;font-weight:500;}.cls-2{letter-spacing:0em;}.cls-3{fill:#4f4f4f;}.cls-4{isolation:isolate;}</style></defs><g id="THE_PREMIUM_COLLECTION" data-name="THE PREMIUM COLLECTION"><text class="cls-1" transform="translate(28.75 31.08)">THE <tspan class="cls-2" x="48.65" y="0">P</tspan><tspan x="62.7" y="0">REMIUM COLLECTION</tspan></text></g><g id="Layer_7" data-name="Layer 7"><path class="cls-3" d="M23,29.23V24c-.55,2.79-1.83,4.14-3.64,4.74h0l-.26.46Z"/></g><g id="Layer_8" data-name="Layer 8"><polygon class="cls-3" points="18.1 8.37 6.56 29.23 10.33 29.23 22.13 7.89 19.39 7.89 18.36 7.89 18.1 8.37 18.1 8.37"/></g><g id="Layer_9" data-name="Layer 9"><path class="cls-3" d="M9,7.89H7v4.36a5.26,5.26,0,0,1,3.28-3.88h0l.27-.48Z"/></g><g id="Layer_6" data-name="Layer 6"><path class="cls-3" d="M15,19.72V20h3.31v1.83a4.24,4.24,0,0,1-.8,2.61,2.64,2.64,0,0,1-2.22,1c-2.75,0-4.29-2.28-4.29-6.89a9.41,9.41,0,0,1,1.12-4.85,3.47,3.47,0,0,1,3.17-2.14c2.38,0,4.69,1,4.69,4.38h0v-4.4h0c0,.58-.48.72-1,.72a4,4,0,0,1-1.2-.27,5.93,5.93,0,0,0-2.46-.45,6.48,6.48,0,0,0-5.16,2.65,7.38,7.38,0,0,0-1.34,4.36,7.47,7.47,0,0,0,.55,2.91,6.34,6.34,0,0,0,1.47,2.2,6.55,6.55,0,0,0,4.48,1.81A7.8,7.8,0,0,0,18,24.82a4.53,4.53,0,0,1,1.33-.3c.48,0,.72.23.94.69h0V19.72Z"/></g><g id="Rectangle_4" data-name="Rectangle 4" class="cls-4"><g id="Rectangle_4-2" data-name="Rectangle 4"><path class="cls-3" d="M24.33,6.37V30.66H5.43V6.37h18.9m.4-.4H5V31.06h19.7V6Z"/></g></g></svg>