<?xml version="1.0" encoding="utf-8"?>
<!-- Generator: Adobe Illustrator 24.0.0, SVG Export Plug-In . SVG Version: 6.00 Build 0)  -->
<svg version="1.1" id="Layer_1" xmlns="http://www.w3.org/2000/svg" xmlns:xlink="http://www.w3.org/1999/xlink" x="0px" y="0px"
	 viewBox="0 0 400 40" style="enable-background:new 0 0 400 40;" xml:space="preserve">
<style type="text/css">
	.st0{fill:#FFFFFF;}
	.st1{fill:#B0B0B0;}
</style>
<path class="st0" d="M47.6,3.8v6.5h-0.5c0-3.3-1.3-6-3-6h-3v31.5H43v0.5h-7.4v-0.5h1.9V4.3h-3c-1.7,0-3,2.7-3,6H31V3.8H47.6z"/>
<path class="st0" d="M67.4,3.8v0.5h-1.9v31.5h1.9v0.5H60v-0.5h1.9V20.2h-6.5v15.5h1.9v0.5h-7.4v-0.5h1.9V4.3h-1.9V3.8h7.4v0.5h-1.9
	v15.5h6.5V4.3H60V3.8H67.4z"/>
<path class="st0" d="M83.6,10.3h-0.5c0-3.3-1.3-6-3-6h-4.4v15.5h2.8c1,0,1.9-1.7,1.9-3.7h0.5V24h-0.5c0-2-0.8-3.7-1.9-3.7h-2.8v15.5
	h4.4c1.7,0,3-2.7,3-6h0.5v6.5H70.1v-0.5H72V4.3h-1.9V3.8h13.4L83.6,10.3L83.6,10.3z"/>
<path class="st0" d="M100,22.3v13.4h1.9v0.5h-7.4v-0.5h1.9V4.3h-1.9V3.8h7.4c5,0,8.3,3.3,8.3,7.4v3.7c0,4.1-3.3,7.4-8.3,7.4H100z
	 M100,4.3v17.6h1.9c2.5,0,4.6-3.1,4.6-6.9v-3.7c0-3.8-2.1-6.9-4.6-6.9L100,4.3z"/>
<path class="st0" d="M118.1,20.5v15.3h1.9v0.5h-7.4v-0.5h1.9V4.3h-1.9V3.8h7.4c5,0,8.3,3.3,8.3,7.4v1.9c-0.1,3.5-2.6,6.5-6.1,7.2
	c3.5,0.6,6,3.6,6.1,7.2v6.2c0,0.9,0.4,1.6,0.9,1.6s0.9-0.7,0.9-1.6h0.5c0,1.7-1.3,3-3,3s-3-1.3-3-3v-6.2c0-3.8-2.1-6.9-4.6-6.9
	L118.1,20.5z M118.1,4.3V20h1.9c2.5,0,4.6-3.1,4.6-6.9v-1.9c0-3.8-2.1-6.9-4.6-6.9L118.1,4.3z"/>
<path class="st0" d="M145.8,10.3h-0.5c0-3.3-1.3-6-3-6h-4.4v15.5h2.8c1,0,1.9-1.7,1.9-3.7h0.5V24h-0.5c0-2-0.8-3.7-1.9-3.7h-2.8
	v15.5h4.4c1.7,0,3-2.7,3-6h0.5v6.5h-13.4v-0.5h1.9V4.3h-1.9V3.8h13.4V10.3z"/>
<path class="st0" d="M154,3.8l5.9,24.6L165,3.8h5.6v0.5h-1.9v31.5h1.9v0.5h-7.4v-0.5h1.9V6.1l-6.2,30.1h-0.7l-6.9-28.8v28.3h1.9v0.5
	h-4.4v-0.5c1.5,0,2.1-0.6,2.1-1.4V5.7c0-0.8-0.6-1.4-2.1-1.4V3.8H154z"/>
<path class="st0" d="M180.8,3.8v0.5h-1.9v31.5h1.9v0.5h-7.4v-0.5h1.9V4.3h-1.9V3.8H180.8z"/>
<path class="st0" d="M198,29.3c0,4.1-2.5,7.4-5.6,7.4c-4,0.1-7.3-3.1-7.4-7.2c0-0.1,0-0.2,0-0.2v-25h-1.9V3.8h7.4v0.5h-1.9v25
	c0,3.8,1.4,6.9,3.7,6.9c2.8,0,5.1-3.1,5.1-6.9v-25h-1.9V3.8h4.4v0.5c-1.5,0-2.1,0.6-2.1,1.4L198,29.3z"/>
<path class="st0" d="M207.5,3.8l5.9,24.6l5.1-24.6h5.6v0.5h-1.9v31.5h1.9v0.5h-7.4v-0.5h1.9V6.1l-6.2,30.1h-0.7l-6.9-28.8v28.3h1.9
	v0.5h-4.4v-0.5c1.5,0,2.1-0.6,2.1-1.4V5.7c0-0.8-0.6-1.4-2.1-1.4V3.8H207.5z"/>
<path class="st0" d="M248.5,29.3v6.9H248c0-1.1-0.6-1.7-1.2-1.7c-1,1.4-2.6,2.2-4.3,2.1c-4-0.1-7.1-3.4-6.9-7.4V10.8
	c-0.1-4,3-7.3,6.9-7.4c1.7-0.1,3.3,0.7,4.3,2.1c0.6,0,1.2-0.6,1.2-1.7h0.5v6.9H248c0-4-2.4-6.9-5.1-6.9c-2.3,0-3.7,3.1-3.7,6.9v18.5
	c0,3.8,1.4,6.9,3.7,6.9c2.7,0,5.1-3,5.1-6.9L248.5,29.3z"/>
<path class="st0" d="M252.3,10.8c0-4.1,3.3-7.4,7.4-7.4s7.4,3.3,7.4,7.4v18.5c0,4.1-3.3,7.4-7.4,7.4s-7.4-3.3-7.4-7.4L252.3,10.8z
	 M263.4,10.8c0-3.8-1.4-6.9-3.7-6.9c-2.3,0-3.7,3.1-3.7,6.9v18.5c0,3.8,1.4,6.9,3.7,6.9s3.7-3.1,3.7-6.9V10.8z"/>
<path class="st0" d="M270.8,36.2v-0.5h1.9V4.3h-1.9V3.8h7.4v0.5h-1.9v31.5h4.4c1.7,0,3-2.7,3-6h0.5v6.5L270.8,36.2z"/>
<path class="st0" d="M286.4,36.2v-0.5h1.9V4.3h-1.9V3.8h7.4v0.5h-1.9v31.5h4.4c1.7,0,3-2.7,3-6h0.5v6.5L286.4,36.2z"/>
<path class="st0" d="M315.4,10.3h-0.5c0-3.3-1.3-6-3-6h-4.4v15.5h2.8c1,0,1.9-1.7,1.9-3.7h0.5V24h-0.5c0-2-0.8-3.7-1.9-3.7h-2.8
	v15.5h4.4c1.7,0,3-2.7,3-6h0.5v6.5H302v-0.5h1.9V4.3H302V3.8h13.4V10.3z"/>
<path class="st0" d="M332.3,29.3v6.9h-0.5c0-1.1-0.6-1.7-1.2-1.7c-1,1.4-2.6,2.2-4.3,2.1c-4-0.1-7.1-3.4-6.9-7.4V10.8
	c-0.1-4,3-7.3,6.9-7.4c1.7-0.1,3.3,0.7,4.3,2.1c0.6,0,1.2-0.6,1.2-1.7h0.5v6.9h-0.5c0-4-2.4-6.9-5.1-6.9c-2.3,0-3.7,3.1-3.7,6.9
	v18.5c0,3.8,1.4,6.9,3.7,6.9c2.7,0,5.1-3,5.1-6.9L332.3,29.3z"/>
<path class="st0" d="M351.1,3.8v6.5h-0.5c0-3.3-1.3-6-3-6h-3v31.5h1.9v0.5h-7.4v-0.5h1.9V4.3h-3c-1.7,0-3,2.7-3,6h-0.5V3.8H351.1z"
	/>
<path class="st0" d="M360.7,3.8v0.5h-1.9v31.5h1.9v0.5h-7.4v-0.5h1.9V4.3h-1.9V3.8H360.7z"/>
<path class="st0" d="M364.3,10.8c0-4.1,3.3-7.4,7.4-7.4s7.4,3.3,7.4,7.4v18.5c0,4.1-3.3,7.4-7.4,7.4s-7.4-3.3-7.4-7.4V10.8z
	 M375.4,10.8c0-3.8-1.4-6.9-3.7-6.9c-2.3,0-3.7,3.1-3.7,6.9v18.5c0,3.8,1.4,6.9,3.7,6.9c2.3,0,3.7-3.1,3.7-6.9V10.8z"/>
<path class="st0" d="M387.5,3.8l8.6,23V4.3h-1.9V3.8h4.4v0.5c-1.5,0-2.1,0.6-2.1,1.4v30.5h-0.7L385.1,7.4v28.4h1.9v0.5h-4.4v-0.5
	c1.5,0,2.1-0.6,2.1-1.4V5.7c0-0.8-0.6-1.4-2.1-1.4V3.8H387.5z"/>
<path class="st1" d="M24.8,33.8v-6.7c-0.7,3.6-2.4,5.3-4.7,6.1l0,0l-0.3,0.6C19.8,33.8,24.8,33.8,24.8,33.8z"/>
<polygon class="st1" points="18.5,6.9 3.6,33.8 8.5,33.8 23.7,6.3 20.2,6.3 18.8,6.3 "/>
<path class="st1" d="M6.7,6.3H4.2v5.6c0.8-2.8,2.2-4.3,4.2-5l0,0l0.3-0.6L6.7,6.3z"/>
<path class="st1" d="M14.5,21.6v0.3h4.3v2.4c0,1.2-0.3,2.4-1,3.4c-0.7,0.9-1.7,1.4-2.9,1.4c-3.5,0-5.5-2.9-5.5-8.9
	c-0.1-2.2,0.4-4.3,1.4-6.3c0.7-1.7,2.3-2.7,4.1-2.8c3.1,0,6.1,1.3,6.1,5.7l0,0V11l0,0c0,0.7-0.6,0.9-1.3,0.9c-0.5,0-1.1-0.2-1.5-0.4
	c-1-0.4-2.1-0.6-3.2-0.6c-2.6,0-5.1,1.3-6.7,3.4C7,16.1,6.4,18,6.4,20c0,1.3,0.2,2.6,0.7,3.8c0.4,1.1,1.1,2,1.9,2.8
	c1.6,1.5,3.6,2.3,5.8,2.3c1.2-0.1,2.5-0.3,3.6-0.8c0.5-0.2,1.1-0.4,1.7-0.4s0.9,0.3,1.2,0.9l0,0v-5.7v-1.4h-6.8V21.6z"/>
<g id="Rectangle_4">
	<path class="st1" d="M26.5,4.4v31.2H2.2V4.4H26.5 M27.1,3.8H1.6v32.4H27V3.8H27.1z"/>
</g>
</svg>
